<?xml version="1.0" standalone="no"?>
<!DOCTYPE svg PUBLIC "-//W3C//DTD SVG 20010904//EN"
 "http://www.w3.org/TR/2001/REC-SVG-20010904/DTD/svg10.dtd">
<svg version="1.0" xmlns="http://www.w3.org/2000/svg"
 width="400.000000pt" height="400.000000pt" viewBox="0 0 400.000000 400.000000"
 preserveAspectRatio="xMidYMid meet">
<metadata>
Created by potrace 1.14, written by Peter Selinger 2001-2017
</metadata>
<g transform="translate(0.000000,400.000000) scale(0.100000,-0.100000)"
fill="#000000" stroke="none">
<path d="M1810 3805 c-408 -64 -742 -282 -971 -635 -34 -52 -119 -222 -119
-238 0 -4 -6 -19 -14 -34 -19 -36 -63 -226 -74 -318 -12 -94 -8 -322 7 -415
41 -256 102 -434 232 -681 92 -176 90 -172 154 -267 33 -49 65 -96 70 -105 14
-23 18 -28 90 -119 36 -45 65 -84 65 -87 0 -2 12 -17 28 -33 15 -16 40 -44 57
-63 94 -111 352 -380 363 -380 4 0 39 -31 78 -68 39 -38 106 -98 150 -134 l80
-65 35 31 c19 17 79 69 133 116 55 47 127 112 161 145 34 33 86 83 116 112
185 177 431 488 605 763 35 56 144 273 180 360 38 91 90 254 104 325 6 33 16
67 20 77 5 9 12 88 16 175 9 189 9 162 0 303 -7 112 -16 151 -73 319 -100 297
-320 566 -603 738 -88 53 -210 111 -253 120 -10 2 -58 14 -105 28 -161 45
-361 57 -532 30z"/>
</g>
</svg>
